HIERARCHY
ROOT Hips
{
     OFFSET 8.40236 94.72830 -0.80466
     CHANNELS 6 Xposition Yposition Zposition Zrotation Xrotation Yrotation
     JOINT Spine
     {
          OFFSET 0.00000 11.89050 0.00000
          CHANNELS 3 Zrotation Xrotation Yrotation
          JOINT Spine1
          {
               OFFSET 0.00000 25.65740 0.12766
               CHANNELS 3 Zrotation Xrotation Yrotation
               JOINT HEad
               {
                    OFFSET 0.00000 8.73416 0.01134
                    CHANNELS 3 Zrotation Xrotation Yrotation
                    End Site
                    {
                         OFFSET -0.29000 12.77420 2.51395
                    }
               }
               JOINT LeftShoulder1
               {
                    OFFSET 8.99000 -0.36225 -0.22000
                    CHANNELS 3 Zrotation Xrotation Yrotation
                    JOINT LeftArm
                    {
                         OFFSET 10.28270 -0.00338 0.32212
                         CHANNELS 3 Zrotation Xrotation Yrotation
                         JOINT LeftForeArm
                         {
                              OFFSET 32.76690 0.09914 -1.42434
                              CHANNELS 3 Zrotation Xrotation Yrotation
                              JOINT LeftHand
                              {
                                   OFFSET 27.56430 0.08536 1.02216
                                   CHANNELS 3 Zrotation Xrotation Yrotation
                                   End Site
                                   {
                                        OFFSET 16.74430 -0.60000 1.50291
                                   }
                              }
                         }
                    }
               }
               JOINT RightShoulder
               {
                    OFFSET -8.99000 -0.36225 -0.22000
                    CHANNELS 3 Zrotation Xrotation Yrotation
                    JOINT RightArm
                    {
                         OFFSET -10.28270 -0.00338 0.32212
                         CHANNELS 3 Zrotation Xrotation Yrotation
                         JOINT RightForeArm
                         {
                              OFFSET -32.89710 0.09914 -1.42434
                              CHANNELS 3 Zrotation Xrotation Yrotation
                              JOINT RightHand
                              {
                                   OFFSET -27.49210 0.08536 1.02216
                                   CHANNELS 3 Zrotation Xrotation Yrotation
                                   End Site
                                   {
                                        OFFSET -16.63120 -0.60000 1.50291
                                   }
                              }
                         }
                    }
               }
          }
     }
     JOINT LeftUpLeg
     {
          OFFSET 8.94580 -8.66707 0.10165
          CHANNELS 3 Zrotation Xrotation Yrotation
          JOINT LeftLeg
          {
               OFFSET 0.00000 -44.42270 1.37270
               CHANNELS 3 Zrotation Xrotation Yrotation
               JOINT LeftFoot
               {
                    OFFSET -0.25355 -42.09240 -1.46059
                    CHANNELS 3 Zrotation Xrotation Yrotation
                    JOINT LeftToes
                    {
                         OFFSET -0.04000 -4.41509 8.49910
                         CHANNELS 3 Zrotation Xrotation Yrotation
                         End Site
                         {
                              OFFSET 0.08000 -0.04745 9.77979
                         }
                    }
               }
          }
     }
     JOINT RightUpLeg
     {
          OFFSET -8.94580 -8.66707 0.10165
          CHANNELS 3 Zrotation Xrotation Yrotation
          JOINT RightLeg
          {
               OFFSET 0.00000 -44.42270 1.37270
               CHANNELS 3 Zrotation Xrotation Yrotation
               JOINT RightFoot
               {
                    OFFSET 0.25355 -42.09240 -1.46059
                    CHANNELS 3 Zrotation Xrotation Yrotation
                    JOINT RightToes
                    {
                         OFFSET 0.04000 -4.41509 8.49910
                         CHANNELS 3 Zrotation Xrotation Yrotation
                         End Site
                         {
                              OFFSET -0.08000 -0.13745 9.77979
                         }
                    }
               }
          }
     }
}
MOTION
Frames: 8
Frame Time: 0.01667
-16.68920 94.10460 40.81910 -16.09880 -2.04416 -77.14450 -0.46855 11.04900 -0.59028 -2.01027 22.26160 0.86475 2.96894 -9.14094 10.23580 0.00000 0.00000 0.00000 -102.90200 -56.17710 -81.96340 -24.12310 42.71600 -84.14890 19.78150 7.09629 -12.43330 15.35040 0.77658 1.75900 87.83670 -5.40723 69.62450 -0.88067 29.76300 112.08900 18.50900 11.23120 3.65235 19.16870 -6.21099 -10.42270 -24.18910 8.53681 66.82740 6.88613 18.24390 -1.67736 0.33523 -31.97400 -70.32480 -30.34240 5.60261 15.42270 45.22900 24.08840 -53.02050 -34.38350 2.80466 3.13855 5.63628 -38.13030 11.02110 
-16.68920 94.10460 40.81910 -16.09880 -2.04416 -77.14450 -0.46855 11.04900 -0.59028 -2.01027 22.26160 0.86475 2.96894 -9.14094 10.23580 0.00000 0.00000 0.00000 -102.90200 -56.17710 -81.96340 -24.12310 42.71600 -84.14890 19.78150 7.09629 -12.43330 15.35040 0.77658 1.75900 87.83670 -5.40723 69.62450 -0.88067 29.76300 112.08900 18.50900 11.23120 3.65235 19.16870 -6.21099 -10.42270 -24.18910 8.53681 66.82740 6.88613 18.24390 -1.67736 0.33523 -31.97400 -70.32480 -30.34240 5.60261 15.42270 45.22900 24.08840 -53.02050 -34.38350 2.80466 3.13855 5.63628 -38.13030 11.02110 
-16.29500 94.04870 40.18060 -16.42960 -2.06389 -76.74020 0.29261 10.97980 -0.90887 -1.96270 22.35610 0.80627 3.03047 -9.04409 10.21330 0.00000 0.00000 0.00000 -101.03700 -55.46840 -80.53850 -23.24490 41.60280 -84.75430 19.51910 7.14951 -12.35090 15.42230 0.75782 1.64205 87.75290 -5.65655 69.47980 -0.63321 29.82260 111.96500 18.58090 11.23240 3.62915 19.62870 -5.84528 -10.56290 -24.13870 7.55414 66.28810 7.38769 18.70910 -1.82360 0.56946 -31.53790 -70.11780 -30.00120 5.16796 15.41600 45.52310 27.30330 -52.78170 -35.43360 5.15127 4.00399 6.20501 -38.96340 12.73410 
-15.87140 93.95930 39.45490 -16.67130 -2.09314 -76.40800 0.96914 10.88900 -1.19627 -1.94172 22.40250 0.77972 3.09178 -8.86150 10.19980 0.00000 0.00000 0.00000 -99.33500 -54.78170 -79.27390 -22.49650 40.56210 -85.21990 19.27450 7.20798 -12.21830 15.53600 0.74629 1.55892 87.56620 -5.89220 69.34170 -0.47090 29.81110 111.85000 18.57840 11.25430 3.76068 20.08110 -5.64636 -10.74840 -24.05180 6.65693 65.88780 7.59795 19.22090 -1.90912 0.91663 -30.85480 -69.93190 -29.62550 4.78685 15.46690 45.56830 30.05530 -51.83030 -36.28970 7.70961 4.95791 6.50740 -39.06460 13.94020 
-15.41330 93.82270 38.62830 -16.83550 -2.16879 -76.14110 1.51401 10.80310 -1.45090 -1.95451 22.43020 0.73836 3.14557 -8.65389 10.27960 0.00000 0.00000 0.00000 -98.03880 -54.28580 -78.34750 -22.07450 39.76040 -85.42450 19.04540 7.26855 -12.05510 15.64120 0.74219 1.51895 87.32420 -6.05907 69.25010 -0.49950 29.71180 111.79600 18.46270 11.29520 4.05569 20.49760 -5.59974 -10.97680 -23.95070 5.85316 65.50470 7.60773 19.69510 -1.94587 1.42800 -29.85620 -69.51720 -29.27600 4.54557 15.59440 45.38960 32.16770 -50.24820 -36.88100 10.14170 5.86528 6.63450 -39.00730 14.55020 
-14.91470 93.62380 37.68570 -16.93850 -2.29433 -75.92260 1.90157 10.74520 -1.67636 -1.98989 22.46580 0.63519 3.18913 -8.47223 10.51350 0.00000 0.00000 0.00000 -97.08130 -54.05410 -77.71100 -22.02610 39.17380 -85.34990 18.83850 7.31913 -11.92940 15.69140 0.74501 1.52621 87.08700 -6.10142 69.24640 -0.72137 29.55370 111.80000 18.26250 11.34200 4.42916 20.89980 -5.69642 -11.25700 -23.87640 5.13747 65.03510 7.56941 20.07300 -1.96407 2.09382 -28.55810 -68.68140 -28.99120 4.51460 15.81220 45.04810 33.50130 -48.34160 -37.29820 12.08510 6.59987 6.96403 -39.92520 14.95520 
-14.36810 93.35390 36.61640 -16.99630 -2.43538 -75.74180 2.13110 10.72950 -1.87216 -2.02811 22.52730 0.45242 3.22268 -8.34244 10.90310 0.00000 0.00000 0.00000 -96.38170 -54.12630 -77.30580 -22.30770 38.78150 -85.06040 18.68470 7.34638 -11.89850 15.69000 0.75228 1.56629 86.87730 -5.97407 69.35990 -1.01391 29.39870 111.79700 18.04550 11.37650 4.74330 21.34190 -5.94124 -11.58380 -23.83500 4.51866 64.47250 7.54625 20.37460 -1.98024 2.85259 -27.01890 -67.50980 -28.76000 4.71079 16.11870 44.62010 34.01840 -46.49900 -37.71350 13.25560 7.08337 7.85320 -42.60010 15.65570 
-13.77400 93.00130 35.42950 -17.03470 -2.54843 -75.59000 2.22146 10.76290 -2.04034 -2.05428 22.63300 0.20961 3.25196 -8.27299 11.38330 0.00000 0.00000 0.00000 -96.03990 -54.56510 -77.19790 -22.86150 38.68560 -84.65650 18.59000 7.35333 -11.94100 15.65930 0.75664 1.59527 86.70030 -5.64396 69.59570 -1.22701 29.29970 111.71400 17.85610 11.38880 4.91293 21.86240 -6.37706 -11.94980 -23.80240 4.11422 63.88850 7.42135 20.63390 -1.96812 3.64718 -25.28020 -66.28570 -28.53380 5.09697 16.47190 44.18400 33.86060 -44.98520 -38.23450 13.47720 7.26692 9.37612 -46.75170 16.80120 
